<svg width="171" height="33" viewBox="0 0 171 33" fill="none" xmlns="http://www.w3.org/2000/svg">
<path d="M43.5568 26.7273C42.4659 26.7273 41.5028 26.4517 40.6676 25.9006C39.8324 25.3437 39.179 24.5597 38.7074 23.5483C38.2358 22.5313 38 21.3295 38 19.9432C38 18.5682 38.2358 17.375 38.7074 16.3636C39.179 15.3523 39.8352 14.571 40.6761 14.0199C41.517 13.4688 42.4886 13.1932 43.5909 13.1932C44.4432 13.1932 45.1165 13.3352 45.6108 13.6193C46.1108 13.8977 46.4915 14.2159 46.7528 14.5739C47.0199 14.9261 47.2273 15.2159 47.375 15.4432H47.5455V9H49.5568V26.4545H47.6136V24.4432H47.375C47.2273 24.6818 47.017 24.983 46.7443 25.3466C46.4716 25.7045 46.0824 26.0256 45.5767 26.3097C45.071 26.5881 44.3977 26.7273 43.5568 26.7273ZM43.8295 24.9205C44.6364 24.9205 45.3182 24.7102 45.875 24.2898C46.4318 23.8636 46.8551 23.2756 47.1449 22.5256C47.4347 21.7699 47.5795 20.8977 47.5795 19.9091C47.5795 18.9318 47.4375 18.0767 47.1534 17.3438C46.8693 16.6051 46.4489 16.0313 45.892 15.6222C45.3352 15.2074 44.6477 15 43.8295 15C42.9773 15 42.267 15.2188 41.6989 15.6562C41.1364 16.0881 40.7131 16.6761 40.429 17.4205C40.1506 18.1591 40.0114 18.9886 40.0114 19.9091C40.0114 20.8409 40.1534 21.6875 40.4375 22.4489C40.7273 23.2045 41.1534 23.8068 41.7159 24.2557C42.2841 24.6989 42.9886 24.9205 43.8295 24.9205Z" fill="white"/>
<path d="M53.5199 26.4545V13.3636H55.4631V15.3409H55.5994C55.8381 14.6932 56.2699 14.1676 56.8949 13.7642C57.5199 13.3608 58.2244 13.1591 59.0085 13.1591C59.1563 13.1591 59.3409 13.1619 59.5625 13.1676C59.7841 13.1733 59.9517 13.1818 60.0653 13.1932V15.2386C59.9972 15.2216 59.8409 15.196 59.5966 15.1619C59.358 15.1222 59.1051 15.1023 58.8381 15.1023C58.2017 15.1023 57.6335 15.2358 57.1335 15.5028C56.6392 15.7642 56.2472 16.1278 55.9574 16.5938C55.6733 17.054 55.5312 17.5795 55.5312 18.1705V26.4545H53.5199Z" fill="white"/>
<path d="M66.3018 26.7614C65.4723 26.7614 64.7195 26.6051 64.0433 26.2926C63.3672 25.9744 62.8303 25.517 62.4325 24.9205C62.0348 24.3182 61.8359 23.5909 61.8359 22.7386C61.8359 21.9886 61.9837 21.3807 62.2791 20.9148C62.5746 20.4432 62.9695 20.0739 63.4638 19.8068C63.9581 19.5398 64.5036 19.3409 65.1001 19.2102C65.7024 19.0739 66.3075 18.9659 66.9155 18.8864C67.7109 18.7841 68.3558 18.7074 68.8501 18.6562C69.3501 18.5994 69.7138 18.5057 69.9411 18.375C70.174 18.2443 70.2905 18.017 70.2905 17.6932V17.625C70.2905 16.7841 70.0604 16.1307 69.6001 15.6648C69.1456 15.1989 68.4553 14.9659 67.5291 14.9659C66.5689 14.9659 65.8161 15.1761 65.2706 15.5966C64.7251 16.017 64.3416 16.4659 64.12 16.9432L62.2109 16.2614C62.5518 15.4659 63.0064 14.8466 63.5746 14.4034C64.1484 13.9545 64.7734 13.642 65.4496 13.4659C66.1314 13.2841 66.8018 13.1932 67.4609 13.1932C67.8814 13.1932 68.3643 13.2443 68.9098 13.3466C69.4609 13.4432 69.9922 13.6449 70.5036 13.9517C71.0206 14.2585 71.4496 14.7216 71.7905 15.3409C72.1314 15.9602 72.3018 16.7898 72.3018 17.8295V26.4545H70.2905V24.6818H70.1882C70.0518 24.9659 69.8246 25.2699 69.5064 25.5938C69.1882 25.9176 68.7649 26.1932 68.2365 26.4205C67.7081 26.6477 67.0632 26.7614 66.3018 26.7614ZM66.6087 24.9545C67.4041 24.9545 68.0746 24.7983 68.62 24.4858C69.1712 24.1733 69.5859 23.7699 69.8643 23.2756C70.1484 22.7813 70.2905 22.2614 70.2905 21.7159V19.875C70.2053 19.9773 70.0178 20.071 69.728 20.1562C69.4439 20.2358 69.1143 20.3068 68.7393 20.3693C68.37 20.4261 68.0092 20.4773 67.657 20.5227C67.3104 20.5625 67.0291 20.5966 66.8132 20.625C66.2905 20.6932 65.8018 20.804 65.3473 20.9574C64.8984 21.1051 64.5348 21.3295 64.2564 21.6307C63.9837 21.9261 63.8473 22.3295 63.8473 22.8409C63.8473 23.5398 64.1058 24.0682 64.6229 24.4261C65.1456 24.7784 65.8075 24.9545 66.6087 24.9545Z" fill="white"/>
<path d="M81.2571 31.6364C80.2855 31.6364 79.4503 31.5114 78.7514 31.2614C78.0526 31.017 77.4702 30.6932 77.0043 30.2898C76.544 29.892 76.1776 29.4659 75.9048 29.0114L77.5071 27.8864C77.6889 28.125 77.919 28.3977 78.1974 28.7045C78.4759 29.017 78.8565 29.2869 79.3395 29.5142C79.8281 29.7472 80.4673 29.8636 81.2571 29.8636C82.3139 29.8636 83.1861 29.608 83.8736 29.0966C84.5611 28.5852 84.9048 27.7841 84.9048 26.6932V24.0341H84.7344C84.5866 24.2727 84.3764 24.5682 84.1037 24.9205C83.8366 25.267 83.4503 25.5767 82.9446 25.8494C82.4446 26.1165 81.7685 26.25 80.9162 26.25C79.8594 26.25 78.9105 26 78.0696 25.5C77.2344 25 76.5724 24.2727 76.0838 23.3182C75.6009 22.3636 75.3594 21.2045 75.3594 19.8409C75.3594 18.5 75.5952 17.3324 76.0668 16.3381C76.5384 15.3381 77.1946 14.5653 78.0355 14.0199C78.8764 13.4688 79.848 13.1932 80.9503 13.1932C81.8026 13.1932 82.4787 13.3352 82.9787 13.6193C83.4844 13.8977 83.8707 14.2159 84.1378 14.5739C84.4105 14.9261 84.6207 15.2159 84.7685 15.4432H84.973V13.3636H86.9162V26.8295C86.9162 27.9545 86.6605 28.8693 86.1491 29.5739C85.6435 30.2841 84.9616 30.804 84.1037 31.1335C83.2514 31.4688 82.3026 31.6364 81.2571 31.6364ZM81.1889 24.4432C81.9957 24.4432 82.6776 24.2585 83.2344 23.8892C83.7912 23.5199 84.2145 22.9886 84.5043 22.2955C84.794 21.6023 84.9389 20.7727 84.9389 19.8068C84.9389 18.8636 84.7969 18.0313 84.5128 17.3097C84.2287 16.5881 83.8082 16.0227 83.2514 15.6136C82.6946 15.2045 82.0071 15 81.1889 15C80.3366 15 79.6264 15.2159 79.0582 15.6477C78.4957 16.0795 78.0724 16.6591 77.7884 17.3864C77.5099 18.1136 77.3707 18.9205 77.3707 19.8068C77.3707 20.7159 77.5128 21.5199 77.7969 22.2188C78.0866 22.9119 78.5128 23.4574 79.0753 23.8551C79.6435 24.2472 80.348 24.4432 81.1889 24.4432Z" fill="white"/>
<path d="M95.5412 26.7273C94.4503 26.7273 93.4872 26.4517 92.652 25.9006C91.8168 25.3437 91.1634 24.5597 90.6918 23.5483C90.2202 22.5313 89.9844 21.3295 89.9844 19.9432C89.9844 18.5682 90.2202 17.375 90.6918 16.3636C91.1634 15.3523 91.8196 14.571 92.6605 14.0199C93.5014 13.4688 94.473 13.1932 95.5753 13.1932C96.4276 13.1932 97.1009 13.3352 97.5952 13.6193C98.0952 13.8977 98.4759 14.2159 98.7372 14.5739C99.0043 14.9261 99.2116 15.2159 99.3594 15.4432H99.5298V9H101.541V26.4545H99.598V24.4432H99.3594C99.2116 24.6818 99.0014 24.983 98.7287 25.3466C98.456 25.7045 98.0668 26.0256 97.5611 26.3097C97.0554 26.5881 96.3821 26.7273 95.5412 26.7273ZM95.8139 24.9205C96.6207 24.9205 97.3026 24.7102 97.8594 24.2898C98.4162 23.8636 98.8395 23.2756 99.1293 22.5256C99.419 21.7699 99.5639 20.8977 99.5639 19.9091C99.5639 18.9318 99.4219 18.0767 99.1378 17.3438C98.8537 16.6051 98.4332 16.0313 97.8764 15.6222C97.3196 15.2074 96.6321 15 95.8139 15C94.9616 15 94.2514 15.2188 93.6832 15.6562C93.1207 16.0881 92.6974 16.6761 92.4134 17.4205C92.1349 18.1591 91.9957 18.9886 91.9957 19.9091C91.9957 20.8409 92.1378 21.6875 92.4219 22.4489C92.7116 23.2045 93.1378 23.8068 93.7003 24.2557C94.2685 24.6989 94.973 24.9205 95.8139 24.9205Z" fill="white"/>
<path d="M105.504 26.4545V13.3636H107.447V15.3409H107.584C107.822 14.6932 108.254 14.1676 108.879 13.7642C109.504 13.3608 110.209 13.1591 110.993 13.1591C111.141 13.1591 111.325 13.1619 111.547 13.1676C111.768 13.1733 111.936 13.1818 112.05 13.1932V15.2386C111.982 15.2216 111.825 15.196 111.581 15.1619C111.342 15.1222 111.089 15.1023 110.822 15.1023C110.186 15.1023 109.618 15.2358 109.118 15.5028C108.624 15.7642 108.232 16.1278 107.942 16.5938C107.658 17.054 107.516 17.5795 107.516 18.1705V26.4545H105.504Z" fill="white"/>
<path d="M119.354 26.7273C118.172 26.7273 117.135 26.446 116.243 25.8835C115.357 25.321 114.663 24.5341 114.163 23.5227C113.669 22.5114 113.422 21.3295 113.422 19.9773C113.422 18.6136 113.669 17.4233 114.163 16.4062C114.663 15.3892 115.357 14.5994 116.243 14.0369C117.135 13.4744 118.172 13.1932 119.354 13.1932C120.536 13.1932 121.57 13.4744 122.456 14.0369C123.348 14.5994 124.041 15.3892 124.536 16.4062C125.036 17.4233 125.286 18.6136 125.286 19.9773C125.286 21.3295 125.036 22.5114 124.536 23.5227C124.041 24.5341 123.348 25.321 122.456 25.8835C121.57 26.446 120.536 26.7273 119.354 26.7273ZM119.354 24.9205C120.251 24.9205 120.99 24.6903 121.57 24.2301C122.149 23.7699 122.578 23.1648 122.857 22.4148C123.135 21.6648 123.274 20.8523 123.274 19.9773C123.274 19.1023 123.135 18.2869 122.857 17.5312C122.578 16.7756 122.149 16.1648 121.57 15.6989C120.99 15.233 120.251 15 119.354 15C118.456 15 117.717 15.233 117.138 15.6989C116.558 16.1648 116.129 16.7756 115.851 17.5312C115.572 18.2869 115.433 19.1023 115.433 19.9773C115.433 20.8523 115.572 21.6648 115.851 22.4148C116.129 23.1648 116.558 23.7699 117.138 24.2301C117.717 24.6903 118.456 24.9205 119.354 24.9205Z" fill="white"/>
<path d="M128.356 31.3636V13.3636H130.299V15.4432H130.538C130.685 15.2159 130.89 14.9261 131.151 14.5739C131.418 14.2159 131.799 13.8977 132.293 13.6193C132.793 13.3352 133.469 13.1932 134.322 13.1932C135.424 13.1932 136.396 13.4688 137.237 14.0199C138.077 14.571 138.734 15.3523 139.205 16.3636C139.677 17.375 139.913 18.5682 139.913 19.9432C139.913 21.3295 139.677 22.5313 139.205 23.5483C138.734 24.5597 138.08 25.3437 137.245 25.9006C136.41 26.4517 135.447 26.7273 134.356 26.7273C133.515 26.7273 132.842 26.5881 132.336 26.3097C131.83 26.0256 131.441 25.7045 131.168 25.3466C130.896 24.983 130.685 24.6818 130.538 24.4432H130.367V31.3636H128.356ZM130.333 19.9091C130.333 20.8977 130.478 21.7699 130.768 22.5256C131.058 23.2756 131.481 23.8636 132.038 24.2898C132.594 24.7102 133.276 24.9205 134.083 24.9205C134.924 24.9205 135.626 24.6989 136.188 24.2557C136.756 23.8068 137.183 23.2045 137.467 22.4489C137.756 21.6875 137.901 20.8409 137.901 19.9091C137.901 18.9886 137.759 18.1591 137.475 17.4205C137.197 16.6761 136.773 16.0881 136.205 15.6562C135.643 15.2188 134.935 15 134.083 15C133.265 15 132.577 15.2074 132.021 15.6222C131.464 16.0313 131.043 16.6051 130.759 17.3438C130.475 18.0767 130.333 18.9318 130.333 19.9091Z" fill="white"/>
<path d="M147.413 26.6676C146.418 26.6676 145.518 26.4119 144.711 25.9006C143.91 25.3835 143.273 24.625 142.802 23.625C142.336 22.6193 142.103 21.3864 142.103 19.9261C142.103 18.4261 142.344 17.179 142.827 16.1847C143.31 15.1847 143.952 14.4375 144.754 13.9432C145.56 13.4432 146.444 13.1932 147.404 13.1932C148.137 13.1932 148.748 13.3182 149.237 13.5682C149.731 13.8125 150.129 14.1193 150.43 14.4886C150.737 14.8523 150.969 15.2102 151.129 15.5625H151.239V9H154.862V26.4545H151.282V24.358H151.129C150.958 24.7216 150.717 25.0824 150.404 25.4403C150.097 25.7926 149.697 26.0852 149.202 26.3182C148.714 26.5511 148.117 26.6676 147.413 26.6676ZM148.563 23.7784C149.148 23.7784 149.643 23.6193 150.046 23.3011C150.455 22.9773 150.768 22.5256 150.984 21.946C151.205 21.3665 151.316 20.6875 151.316 19.9091C151.316 19.1307 151.208 18.4545 150.992 17.8807C150.776 17.3068 150.464 16.8636 150.055 16.5511C149.646 16.2386 149.148 16.0824 148.563 16.0824C147.967 16.0824 147.464 16.2443 147.055 16.5682C146.646 16.892 146.336 17.3409 146.126 17.9148C145.915 18.4886 145.81 19.1534 145.81 19.9091C145.81 20.6705 145.915 21.3438 146.126 21.929C146.342 22.5085 146.651 22.9631 147.055 23.2926C147.464 23.6165 147.967 23.7784 148.563 23.7784Z" fill="white"/>
<path d="M163.761 26.7102C162.437 26.7102 161.293 26.429 160.327 25.8665C159.366 25.2983 158.625 24.5085 158.102 23.4972C157.58 22.4801 157.318 21.3011 157.318 19.9602C157.318 18.608 157.58 17.4261 158.102 16.4148C158.625 15.3977 159.366 14.608 160.327 14.0455C161.293 13.4773 162.437 13.1932 163.761 13.1932C165.085 13.1932 166.227 13.4773 167.188 14.0455C168.153 14.608 168.898 15.3977 169.42 16.4148C169.943 17.4261 170.205 18.608 170.205 19.9602C170.205 21.3011 169.943 22.4801 169.42 23.4972C168.898 24.5085 168.153 25.2983 167.188 25.8665C166.227 26.429 165.085 26.7102 163.761 26.7102ZM163.778 23.8977C164.381 23.8977 164.884 23.7273 165.287 23.3864C165.69 23.0398 165.994 22.5682 166.199 21.9716C166.409 21.375 166.514 20.696 166.514 19.9347C166.514 19.1733 166.409 18.4943 166.199 17.8977C165.994 17.3011 165.69 16.8295 165.287 16.483C164.884 16.1364 164.381 15.9631 163.778 15.9631C163.17 15.9631 162.659 16.1364 162.244 16.483C161.835 16.8295 161.526 17.3011 161.315 17.8977C161.111 18.4943 161.009 19.1733 161.009 19.9347C161.009 20.696 161.111 21.375 161.315 21.9716C161.526 22.5682 161.835 23.0398 162.244 23.3864C162.659 23.7273 163.17 23.8977 163.778 23.8977Z" fill="white"/>
<path d="M21.7487 12.1978H32V1H20.8022V11.2513H1V32H21.7487V12.1978ZM21.771 1.96875H31.0312V11.229H21.771V1.96875ZM20.7799 31.0312H1.96875V12.2201H20.7799V31.0312Z" fill="#07C994" stroke="#07C994" stroke-width="2"/>
</svg>
